<svg xmlns="http://www.w3.org/2000/svg" xmlns:xlink="http://www.w3.org/1999/xlink" width="34" height="32" viewBox="0 0 34 32">
  <defs>
    <polygon id="ic_profile_badge_hypesquad_color_32px-a" points="0 0 33.985 0 33.985 22.936 0 22.936"/>
  </defs>
  <g fill="none" fill-rule="evenodd" transform="translate(0 5)">
    <mask id="ic_profile_badge_hypesquad_color_32px-b" fill="#fff">
      <use xlink:href="#ic_profile_badge_hypesquad_color_32px-a"/>
    </mask>
    <path fill="#F8A532" d="M33.3741364,0.0647833333 L19.936493,8.62078333 C19.7042915,8.76900556 19.5166326,8.97370556 19.392493,9.21495 L17.3437953,13.1998278 C17.1993612,13.4811944 16.7855628,13.4811944 16.6408651,13.1998278 L14.5919039,9.21495 C14.4682915,8.97370556 14.2806326,8.76900556 14.048431,8.62078333 L0.610524031,0.0647833333 C0.273950388,-0.149627778 -0.137739535,0.20815 0.0451751938,0.556216667 L5.61616744,11.1594722 C5.74900465,11.4129833 5.55950078,11.7132611 5.26588837,11.7132611 L1.93177984,11.7132611 C1.54987287,11.7132611 1.39252403,12.1880833 1.70300465,12.4037722 L16.7636868,22.8651944 C16.900214,22.9602611 17.0841829,22.9602611 17.2209736,22.8651944 L32.2816558,12.4037722 C32.5921364,12.1880833 32.4347876,11.7132611 32.0528806,11.7132611 L28.7185085,11.7132611 C28.4251597,11.7132611 28.2353922,11.4129833 28.368493,11.1594722 L33.9397488,0.556216667 C34.1226636,0.20815 33.7107101,-0.149627778 33.3741364,0.0647833333" mask="url(#ic_profile_badge_hypesquad_color_32px-b)"/>
  </g>
</svg>
