<svg width="32" height="32" viewBox="0 0 32 32" fill="none" xmlns="http://www.w3.org/2000/svg">
<path d="M23.6632 11.1399L19.5797 13.7436C18.9964 14.0329 18.7047 14.0329 18.1213 13.7436C17.8296 13.4543 17.2463 13.165 16.9546 12.8757C15.7879 12.5864 14.9129 12.8757 14.0378 13.4543L12.5794 14.3222L5.2875 19.2404C3.53744 20.1083 1.49569 19.819 0.620658 18.0831C-0.546053 16.6366 0.0373027 14.6115 1.49569 13.4543L10.246 7.66824C12.5794 6.22172 15.4962 5.64312 18.1213 6.22172C20.4547 6.80033 22.2048 7.95754 23.6632 9.69336C24.2466 10.272 23.9549 10.8506 23.6632 11.1399Z" fill="#7289DA"/>
<path d="M32 16.2181C32 17.3684 31.4176 18.5188 30.5439 19.094L21.5164 24.8457C19.7691 25.996 18.0218 26.5712 15.9833 26.5712C15.1097 26.5712 14.5273 26.5712 13.6536 26.2836C11.324 25.7085 9.57668 24.5581 8.12062 22.8326C7.82941 22.2574 8.12062 21.6822 8.41184 21.3947L12.4888 18.8064C12.78 18.5188 13.3624 18.5188 13.6536 18.8064C14.2361 19.094 14.8185 19.3816 15.1097 19.6691C16.2746 19.6691 17.1482 19.6691 18.0218 19.094L20.0603 17.9436L25.8845 13.9174L26.7582 13.3422C28.2142 12.4795 30.5439 12.7671 31.4176 14.205C32 15.0678 32 15.6429 32 16.2181Z" fill="#7289DA"/>
</svg>
