<svg xmlns="http://www.w3.org/2000/svg" viewBox="0 0 2000 2000" width="24" height="24">
	<path fill="#FFF" d="M1402.2 631.7c-9.7-353.4-286.2-496-642.6-496H68.4v714.1l442 398V490.7h257c274.5 0 274.5 344.9 0 344.9H597.6v329.5h169.8c274.5 0 274.5 344.8 0 344.8h-699v354.9h691.2c356.3 0 632.8-142.6 642.6-496 0-162.6-44.5-284.1-122.9-368.6 78.4-84.4 122.9-205.9 122.9-368.5z"/>
	<path fill="#FFF" d="M1262.5 135.2h-76.8c26.6 13.3 51.7 28.1 75 44.3 70.7 49.1 126.1 111.5 164.6 185.3 39.9 76.6 61.5 165.6 64.3 264.6V1371.3c-2.7 99-24.3 188-64.3 264.6-38.5 73.8-93.8 136.2-164.6 185.3-22.6 15.7-46.9 30.1-72.6 43.1h72.5c346.2 1.9 671-171.2 671-567.9V716.7c1.9-404.5-322.9-581.5-669.1-581.5z"/>
</svg>