<?xml version="1.0" encoding="UTF-8"?>
<svg xmlns="http://www.w3.org/2000/svg" xmlns:xlink="http://www.w3.org/1999/xlink" width="24px" height="24px" viewBox="0 0 24 24" version="1.1">
<g id="surface1">
<path style=" stroke:none;fill-rule:nonzero;fill:rgb(0%,0%,0%);fill-opacity:1;" d="M 12.492188 5.296875 C 11.746094 5.414062 10.882812 5.75 10.261719 6.171875 C 9.570312 6.632812 8.882812 7.390625 8.527344 8.085938 C 8.410156 8.3125 8.347656 8.382812 8.296875 8.363281 C 7.925781 8.199219 7.664062 8.136719 7.238281 8.117188 C 6.675781 8.09375 6.355469 8.152344 5.925781 8.363281 C 5.15625 8.734375 4.578125 9.4375 4.398438 10.222656 C 4.34375 10.4375 4.335938 10.449219 4.050781 10.570312 C 3.097656 10.972656 2.21875 11.882812 1.8125 12.882812 C 1.597656 13.40625 1.523438 13.84375 1.523438 14.53125 C 1.527344 15.042969 1.546875 15.234375 1.632812 15.53125 C 1.78125 16.0625 1.945312 16.429688 2.226562 16.851562 C 2.835938 17.785156 3.796875 18.4375 4.898438 18.660156 C 5.296875 18.746094 5.671875 18.75 12.15625 18.75 C 18.1875 18.75 19.03125 18.742188 19.34375 18.675781 C 20.828125 18.371094 21.894531 17.386719 22.339844 15.914062 C 22.453125 15.539062 22.46875 15.417969 22.46875 14.835938 C 22.46875 14.253906 22.453125 14.132812 22.339844 13.757812 C 21.863281 12.183594 20.585938 11.125 18.957031 10.941406 L 18.671875 10.914062 L 18.640625 10.386719 C 18.578125 9.109375 18.054688 7.917969 17.148438 6.960938 C 16.335938 6.113281 15.445312 5.605469 14.328125 5.363281 C 13.925781 5.273438 12.886719 5.234375 12.492188 5.296875 Z M 12.492188 5.296875 "/>
</g>
</svg>
