<svg fill="#FFF" height="24" width="24" viewBox="0 0 24 24" transform="translate(7 4)" xmlns="http://www.w3.org/2000/svg">
	<path d="M0 4.326c0 .741.616 1.36 1.356 1.36a1.37 1.37 0 0 0 1.356-1.36c0-1.483 1.603-1.545 1.788-1.545.185 0 1.788.062 1.788 1.545v.309c0 .618-.309 1.112-.863 1.421l-1.233.68c-.678.37-1.048 1.05-1.048 1.792V9.64c0 .742.616 1.36 1.356 1.36a1.37 1.37 0 0 0 1.356-1.36v-.68l.863-.432C8.137 7.787 9 6.303 9 4.697v-.371C9 1.483 6.72 0 4.5 0 2.22 0 0 1.483 0 4.326zM4.5 12c-2 0-2 3 0 3s2-3 0-3z"/>
</svg>