<?xml version="1.0" encoding="UTF-8" standalone="no"?>
<svg
   fill="#ffffff"
   height="24"
   width="24"
   version="1.1"
   id="svg539"
   sodipodi:docname="Diamond.svg"
   xml:space="preserve"
   inkscape:export-filename="Linux.svg"
   inkscape:export-xdpi="96"
   inkscape:export-ydpi="96"
   xmlns:inkscape="http://www.inkscape.org/namespaces/inkscape"
   xmlns:sodipodi="http://sodipodi.sourceforge.net/DTD/sodipodi-0.dtd"
   xmlns="http://www.w3.org/2000/svg"
   xmlns:svg="http://www.w3.org/2000/svg"><defs
     id="defs543" /><sodipodi:namedview
     id="namedview541"
     pagecolor="#ffffff"
     bordercolor="#000000"
     borderopacity="0.25"
     inkscape:showpageshadow="2"
     inkscape:pageopacity="0.0"
     inkscape:pagecheckerboard="0"
     inkscape:deskcolor="#d1d1d1"
     showgrid="false" /><path
     fill="none"
     d="M 0,0 H 24 V 24 H 0 Z"
     id="path535" /><g
     id="g613"><path
       style="fill:#ffffff;fill-opacity:1;fill-rule:nonzero;stroke:none;stroke-width:1.02188"
       d="m 4.2964753,22.707939 c 1.2394369,0.150781 2.6313601,0.973969 3.7965097,1.1166 1.1690584,0.150782 1.5326795,-0.815036 1.5326795,-0.815036 0,0 1.3176355,-0.301564 2.7017385,-0.334166 1.384104,-0.04075 2.697829,0.293413 2.697829,0.293413 0,0 0.254143,0.594978 0.731151,0.855789 0.473098,0.264887 1.49749,0.301563 2.150443,-0.403443 0.656862,-0.713157 2.412406,-1.609698 3.39379,-2.167997 0.993115,-0.562376 0.809349,-1.418164 0.187676,-1.674901 -0.621675,-0.260812 -1.129961,-0.672405 -1.090863,-1.458915 0.03519,-0.77836 -0.551295,-1.299983 -0.551295,-1.299983 0,0 0.512197,-1.715653 0.03519,-3.137892 C 19.408227,12.267319 17.840358,9.989292 16.63611,8.2777156 15.431862,6.5620628 16.456254,4.5774495 15.357573,2.0467611 14.262802,-0.49207813 11.416398,-0.34129663 9.8837171,0.73862662 8.3510377,1.8226258 8.8202253,4.5040956 8.8945136,5.7755527 8.9688028,7.0429349 8.9297064,7.947626 8.7850365,8.2736406 8.6442802,8.6037302 7.6550767,9.801833 6.9982141,10.808405 6.3452611,11.81905 5.8682533,13.905544 5.3873357,14.765407 4.9181481,15.621195 5.2465804,16.40363 5.2465804,16.40363 c 0,0 -0.3284323,0.114106 -0.5864849,0.676481 -0.2541431,0.554225 -0.7663398,0.819112 -1.681256,0.99842 -0.9110058,0.191534 -0.9110058,0.790586 -0.6920515,1.462991 0.2228639,0.672405 0,1.047322 -0.254143,1.90311 -0.254143,0.855788 1.0204827,1.112525 2.2638303,1.263307 z M 17.171765,18.803914 c 0.649043,0.293413 1.583508,-0.114106 1.868932,-0.403443 0.281512,-0.289339 0.484826,-0.721309 0.484826,-0.721309 0,0 0.285423,0.146708 0.254144,0.607203 -0.03128,0.464571 0.195494,1.128826 0.621672,1.361111 0.42618,0.22821 1.079133,0.55015 0.738972,0.868014 -0.344071,0.321939 -2.244282,1.104375 -2.811217,1.711578 -0.563025,0.607202 -1.301995,1.104373 -1.751632,0.957667 -0.453549,-0.146707 -0.852359,-0.782435 -0.656864,-1.711577 0.203315,-0.925067 0.371441,-1.939787 0.344071,-2.522539 -0.03128,-0.578675 -0.140756,-1.36111 0,-1.475215 0.140757,-0.114105 0.367531,-0.06112 0.367531,-0.06112 0,0 -0.113388,1.1003 0.539565,1.389638 z M 12.949078,3.1266843 c 0.625583,0 1.129959,0.6357286 1.129959,1.4181637 0,0.5542249 -0.254144,1.0350959 -0.625584,1.2633062 -0.09384,-0.036681 -0.191585,-0.081509 -0.301061,-0.1304059 0.226774,-0.1141051 0.38317,-0.4034423 0.38317,-0.7376078 0,-0.4401198 -0.261963,-0.8028108 -0.594304,-0.8028108 -0.324522,0 -0.594305,0.362691 -0.594305,0.8028108 0,0.1589324 0.0391,0.3178637 0.101657,0.4441947 C 12.253117,5.3028262 12.07717,5.2335536 11.936413,5.1805765 11.862123,4.9890427 11.819117,4.7730582 11.819117,4.544848 c 0,-0.7824351 0.504376,-1.4181637 1.129961,-1.4181637 z m -1.55223,2.4410349 c 0.308881,0.057055 1.15733,0.4319688 1.470121,0.546074 0.312793,0.1100302 0.660774,0.3178637 0.625584,0.5216234 -0.0391,0.2119095 -0.199405,0.2119095 -0.625584,0.4767961 C 12.4447,7.3730244 11.525874,7.9517009 11.228722,7.9924522 10.935479,8.0332014 10.771264,7.8620464 10.454562,7.6542128 10.14177,7.4463782 9.5552859,6.9532803 9.7038614,6.6965446 c 0,0 0.4574586,-0.3626921 0.6607726,-0.5460751 0.199405,-0.1915328 0.719422,-0.6398034 1.032214,-0.5827503 z M 10.044023,3.3508197 c 0.496557,0 0.899277,0.603126 0.899277,1.3448098 0,0.1344808 -0.01564,0.2567368 -0.0391,0.3830677 -0.125118,0.040749 -0.246324,0.1059543 -0.363622,0.2119085 -0.05864,0.048907 -0.113386,0.093725 -0.160305,0.1426316 0.07429,-0.1467065 0.105566,-0.362691 0.07037,-0.5909012 C 10.384181,4.4429676 10.118312,4.1495545 9.8602583,4.1862319 9.5982959,4.2310602 9.4419001,4.5978251 9.5044585,5.0053434 c 0.070376,0.4075183 0.3284313,0.7050064 0.5943045,0.6601802 0.01564,-0.00407 0.02737,-0.012227 0.04301,-0.016306 C 10.016656,5.7755485 9.8993597,5.8855787 9.7742431,5.9752322 9.4184421,5.8040751 9.1525693,5.2946775 9.1525693,4.6956253 c 0,-0.7457587 0.3988098,-1.3448098 0.8914567,-1.3448098 z M 7.2953652,13.04568 c 0.508287,-0.819112 0.8367183,-2.612192 1.3450043,-3.207169 0.5121968,-0.594977 0.9110066,-1.8623595 0.731151,-2.4206593 0,0 1.0947715,1.3407349 1.8572015,1.1206756 0.76634,-0.2282103 2.482785,-1.5322688 2.736928,-1.3081335 0.258053,0.2241343 2.443686,5.1469562 2.66655,6.7118262 0.218954,1.56487 -0.148577,2.762974 -0.148577,2.762974 0,0 -0.836718,-0.22821 -0.942284,0.293414 -0.109477,0.525698 -0.109477,2.428809 -0.109477,2.428809 0,0 -1.133871,1.601546 -2.885504,1.866433 -1.751635,0.260812 -2.627452,0.06928 -2.627452,0.06928 L 8.933612,20.213925 c 0,0 0.7663398,-0.11818 0.6568626,-0.900615 C 9.4809976,18.530876 7.2523571,17.450952 6.8535471,16.476984 6.4508276,15.50709 6.7792578,13.864791 7.2953652,13.04568 Z m -4.336075,5.876414 c 0.089924,-0.387143 1.2237983,-0.387143 1.6617068,-0.656105 0.4339978,-0.268962 0.5239256,-1.047322 0.8758168,-1.251081 0.3479806,-0.211909 0.9892035,0.533849 1.2511669,0.953593 0.2619623,0.411594 1.2550765,2.204674 1.6617057,2.648869 0.4105389,0.452345 0.7897986,1.047322 0.6685915,1.581171 C 8.9688018,22.732389 8.3510377,23.123607 8.3510377,23.123607 7.7997426,23.29884 6.2553333,22.618285 5.5554615,22.320796 4.8555898,22.019233 3.072677,21.929578 2.8419937,21.664692 2.6074,21.391654 2.9553806,20.796678 3.0492181,20.234302 3.1313251,19.659702 2.873273,19.305161 2.9592946,18.922094 Z m 0,0"
       id="path601" /></g></svg>
