<svg fill="#FFF" height="24" width="24" viewBox="1 1 22 22" xmlns="http://www.w3.org/2000/svg">
	<path d="M12.26 9.571c-.346 0-.653.1-.914.3-.26.2-.482.454-.664.765-.182.307-.318.65-.414 1.021a4.45 4.45 0 0 0-.143 1.075c0 .172.018.354.054.55.035.193.107.372.217.54.108.164.25.3.425.407.175.107.407.16.697.16.393 0 .725-.096 1-.289.275-.193.5-.436.675-.732a3.4 3.4 0 0 0 .382-.957c.079-.343.118-.66.118-.947a3.62 3.62 0 0 0-.064-.678 1.805 1.805 0 0 0-.229-.604 1.285 1.285 0 0 0-.446-.44 1.303 1.303 0 0 0-.693-.17zm6.318 7.302c.269.29.269.759-.027 1.02a7.602 7.602 0 0 1-2.53 1.482 11.014 11.014 0 0 1-3.717.625c-1.247 0-2.383-.196-3.404-.593-1.021-.393-1.896-.943-2.618-1.646a7.324 7.324 0 0 1-1.686-2.529C4.196 14.25 4 13.18 4 12.018c0-1.147.218-2.207.654-3.182a7.94 7.94 0 0 1 1.782-2.54 8.33 8.33 0 0 1 2.643-1.689A8.577 8.577 0 0 1 12.304 4c.985 0 1.942.143 2.867.429a7.43 7.43 0 0 1 2.468 1.289 6.319 6.319 0 0 1 1.718 2.15c.429.86.643 1.871.643 3.032 0 .86-.118 1.621-.357 2.279-.24.66-.557 1.21-.957 1.657a3.89 3.89 0 0 1-1.368 1 4.048 4.048 0 0 1-1.618.332c-.578 0-1.043-.136-1.393-.407-.346-.272-.521-.618-.521-1.033h-.107c-.218.343-.55.672-1 .979-.45.307-1 .464-1.654.464-.986 0-1.746-.321-2.282-.968-.536-.646-.804-1.482-.804-2.517 0-.604.1-1.197.304-1.786a5.1 5.1 0 0 1 .868-1.572 4.43 4.43 0 0 1 1.346-1.107 3.629 3.629 0 0 1 1.74-.417c.55 0 1.014.114 1.392.342.375.229.622.511.74.84h.021l.033-.16a.91.91 0 0 1 .856-.7h.508c.394 0 .648.312.567.698l-.707 3.369c-.028.2-.068.421-.118.668-.05.243-.075.471-.075.69 0 .242.047.446.143.613.093.165.279.247.554.247.564 0 1.032-.3 1.404-.903.367-.604.553-1.411.553-2.43 0-.86-.146-1.624-.436-2.288a4.69 4.69 0 0 0-1.207-1.679A5.174 5.174 0 0 0 14.59 6.09a7.554 7.554 0 0 0-2.325-.343c-.914 0-1.75.16-2.51.482-.761.321-1.411.768-1.947 1.332a6.06 6.06 0 0 0-1.25 2c-.3.764-.45 1.593-.45 2.482 0 .947.157 1.8.468 2.561.31.76.75 1.407 1.314 1.946.565.54 1.24.95 2.022 1.236.782.286 1.646.429 2.586.429 1.175 0 2.185-.186 3.032-.56a8.177 8.177 0 0 0 1.794-1.086c.309-.244.759-.23 1.028.059l.227.245z"/>
</svg>